<?xml version="1.0" encoding="utf-8"?>
<!-- Generator: Adobe Illustrator 25.0.1, SVG Export Plug-In . SVG Version: 6.00 Build 0)  -->
<svg version="1.0" id="katman_1" xmlns="http://www.w3.org/2000/svg" xmlns:xlink="http://www.w3.org/1999/xlink" x="0px" y="0px"
	 viewBox="0 0 560 400" style="enable-background:new 0 0 560 400;" xml:space="preserve">
<style type="text/css">
	.st0{fill:#848690;}
</style>
<path class="st0" d="M317.9,282.1h-2.5l1.8-3.2l-4.7-8.6h2.6l3.3,6.7l3.2-6.7h2.3L317.9,282.1z M391.7,279.3h-4.2v-21.9h11.6
	c5.8,0,8.1,2.3,8.1,5.9c0,3.9-4.2,5.1-5.3,5.2c2.7,0.2,4.1,0.9,4.7,4.4l0.8,3.8c0.1,0.9,0.4,1.9,0.7,2.7h-4.6v-0.1
	c-0.3-1.2-0.6-2.8-0.8-3.8l-0.7-2.7c-0.6-2.5-1.5-2.8-4.8-2.8h-5.6L391.7,279.3z M473.9,279.3h-4.8l-2.5-5.3h-13.2l-2.6,5.3h-4.6
	l11.4-21.9h5.1L473.9,279.3z M416.4,279.3h-3.8v-21.9h6.7l8.5,18.4l8.5-18.4h6.7v21.9h-4.1v-19.2l-8.9,19.2h-4.6l-9-19.2V279.3z
	 M336.3,279.3H332v-21.9h4.2v9.1h12.9v-9.1h4.3v21.9h-4.3v-9.7h-12.9V279.3z M384.3,279.3h-4.8l-2.5-5.3h-13.2l-2.6,5.3h-4.6
	l11.4-21.9h5.1L384.3,279.3z M480.8,279.3H477v-21.9h5.8l12.4,18.1v-18.1h3.8v21.9h-5.8l-12.4-18.1V279.3z M303,278.8h-2.1
	c0-0.5,0.1-1.4,0.1-1.8v-10.5h2.2v5.1c0.9-1.1,2.3-1.7,3.7-1.7c2.6,0,4.8,1.6,4.8,4.6c0,2.6-2.1,4.7-4.7,4.7h-0.2
	c-2,0-3.1-0.7-3.8-1.6C303,277.9,303,278.6,303,278.8L303,278.8z M306.2,271.5c-1.6-0.1-3,1.1-3.1,2.8c0,0.1,0,0.3,0,0.4
	c0,2,1.1,3.2,3.1,3.2c1.6,0.1,3-1.1,3.1-2.8c0-0.1,0-0.3,0-0.4C309.3,272.7,308.2,271.5,306.2,271.5z M459.9,260.5l-5.1,10.5h10.3
	L459.9,260.5z M370.3,260.5l-5.1,10.5h10.3L370.3,260.5z M397.9,260.4h-6.3v6.5h6.3c3.4,0,4.8-0.9,4.8-3.3
	C402.7,261.4,401.3,260.4,397.9,260.4z M286.8,149.5L286.8,149.5h10.8l25.2,60.8l25.3-60.8l15,0.1l-40.3,96.7l-34.6-83h-33.4
	c-3,0.1-18.1,1.1-18.1,18.1v5.5h50.1v13.9h-50v5.5c0.1,3,1.1,18.1,18.1,18.1h32v13.9h-32c-9.3,0-16.9-2.9-22.5-8.5
	c-9.1-9.1-9.4-22-9.4-23.4v-25c0-23.5,19-32,31.9-32H286.8z M185.5,199.6c10,0,18-8.1,18-18.1c0-4.8-1.9-9.4-5.3-12.8
	c-3.4-3.4-8-5.3-12.8-5.3c-4.8,0-9.4,1.9-12.8,5.3c-3.4,3.4-5.3,8-5.3,12.8v56.9h-13.9v-56.9c0-14.5,9.7-27.1,23.6-30.9
	c14-3.8,28.7,2.3,35.9,14.9c7.2,12.5,5.2,28.3-5.1,38.6c-2.6,2.6-5.6,4.7-8.9,6.3l16.2,16.4l12,11.9l-19.7-0.1l-39-39L185.5,199.6z
	 M143.7,238.4c-3.3-30.7-18.1-39.9-30.3-42.1c19.4-6.1,31.1-25.8,27.3-45.7c-3.8-20-21.8-34-42.1-32.6
	c-20.3,1.3-36.4,17.6-37.5,37.9c-1.1,20.3,13.1,38.2,33.1,41.8c-16.6,3.7-29.9-9.8-29.9-9.8v50.6h29.9v-20.2
	c20.1,0,19.3,20.2,19.3,20.2H143.7z M446.3,149.5v56.9c0.1,3,1.1,18.1,18.1,18.1v-0.1h31.8v13.9h-31.9c-9.3,0-16.9-2.9-22.5-8.5
	c-9.1-9.1-9.4-22-9.4-23.4v-43.1h-40.2c-3.1,0.1-18.1,1.1-18.1,18.1v5.5H424v13.9H374v5.5c0.1,3,1.1,18.1,18.1,18.1H424v13.9h-31.9
	c-9.3,0-16.9-2.9-22.5-8.5c-9.1-9.1-9.4-22-9.4-23.4v-25c0-23.5,19.1-32,32-32L446.3,149.5z M487.1,167c4.8-0.2,8.5-4.2,8.4-8.9
	c-0.1-4.8-4-8.6-8.8-8.6c-4.8,0-8.7,3.9-8.7,8.7C478.1,163.1,482.1,167.1,487.1,167L487.1,167z M487.1,151.1
	c3.9,0.1,6.9,3.4,6.8,7.2c-0.1,3.9-3.3,7-7.2,6.9c-3.9-0.1-7-3.2-7-7.1C479.8,154.3,483.1,151.1,487.1,151.1z M488.1,153.3
	c0.8,0,1.7,0.1,2.5,0.5c0.7,0.4,1.2,1.3,1.1,2.1c0,1.9-1.4,2.6-3.2,2.7l3,4.5h-1.7l-2.9-4.5h-1.8v4.6h-1.5v-9.8H488.1z M485.2,154.5
	h2.6c1.3,0,2.4,0.1,2.4,1.4c0,1.8-2,1.5-3.4,1.5h-1.6V154.5z"/>
</svg>
